<svg version="1" xmlns="http://www.w3.org/2000/svg" width="4666.667" height="4666.667" viewBox="0 0 3500.000000 3500.000000"><path d="M1605.3 1084.8c-7.1 3.4-7.3 12-.4 19 16.6 16.9 32.1 42.4 40.1 66.2 1.8 5.2 3.3 10.2 3.5 11 .2.8.8 3.5 1.4 6 2.4 10.7 3.3 18.3 3.5 30.6.4 15.5-.8 24.7-5 40.2-4.1 15.1-9 25.4-22.2 46.7-24.1 38.8-41.6 76.9-49.3 107.2l-1.3 5.3-3.3-8.6c-5.2-13.5-15.9-31.8-23.8-40.9-6.5-7.5-16.5-17.2-21.5-20.9-3-2.2-5.7-4.3-6-4.7-.9-1-12.4-7.6-19-10.9-10.9-5.5-26.9-10.2-39.5-11.7-5.7-.7-27.4-.6-31.5.1-30.8 5.2-53.9 16.7-75.1 37.6-9.2 9.1-19.5 21.9-22.1 27.5-.9 1.9-1.7 2.5-3.2 2.1-13.2-3.2-28-4.4-81.1-6.1-7.1-.2-19.1-.7-26.5-1-7.4-.2-19.8-.7-27.5-1-22.2-.8-41.9-1.5-56-2-7.1-.3-19.3-.7-27-1-7.7-.3-19.6-.7-26.5-1-6.9-.2-19-.7-27-1-8-.3-20.6-.7-28-1-7.4-.3-19.6-.7-27-1-7.4-.3-19.6-.7-27-1-12.8-.5-21.2-.8-55-2-26.3-1-39.3-1.5-53-2-7.4-.3-20.9-.7-30-1-9.1-.3-21.2-.8-27-1-5.8-.3-17-.7-25-1-8-.2-20.6-.7-28-1-7.4-.3-19.8-.8-27.5-1-33.8-1.2-39.6-1.5-50.5-1.9-6.3-.3-19.1-.8-28.5-1.1-18.4-.6-37.1-1.3-56-2-6.6-.3-19-.7-27.5-1-8.5-.3-20.2-.7-26-1-5.8-.3-18.1-.7-27.5-1-9.3-.3-21.9-.8-28-1-10.9-.5-25.1-1-54-2-8.2-.3-20.8-.8-28-1-33-1.2-43.8-1.6-55.5-2-13.1-.5-29.9-1.1-53.5-2-7.7-.3-19.4-.8-26-1-14.3-.5-35.9-1.3-54.5-2-7.4-.3-20.2-.8-28.5-1.1-15.4-.5-24.6-.8-53.5-1.9-23.4-.9-34.9-1.3-56-2-10.2-.4-22.1-.8-26.5-1-4.4-.2-17.4-.7-29-1-11.6-.4-21.4-1-21.9-1.2-.9-.6-.2 18.6.9 24.2 3.5 18.2 15.1 37.6 30.1 50.5 4.3 3.7 15.7 10.5 20.8 12.4 4 1.6 4.7 2.2 5.6 5.9 4.3 16.6 16 33.7 31.3 45.4 5.2 4 21 13 25.6 14.4.7.3 1.5 2 1.7 3.9 1.2 11.3 5.6 22.8 12.7 33.4 5.3 7.9 15.6 17.9 23.8 23.3 6.8 4.4 19.1 10.6 22.9 11.6 1.2.3 2 1.4 2.1 2.9.5 8.8 3.1 17.3 8.7 28.3 6.7 13.3 17.8 25.5 31.4 34.4 11 7.3 18.4 10.4 44.3 18.6 11.6 3.6 22.1 7 23.5 7.5 1.4.5 12 3.9 23.5 7.5 11.6 3.7 23.5 7.5 26.5 8.5 3 .9 8.4 2.7 12 3.8 21 6.6 65.9 20.9 93.5 29.8 9.9 3.2 18.2 5.8 18.5 5.9.3.1 1.6.5 3 .9 36.1 11.5 49.7 15.8 71 22.7 14 4.5 26.9 8.5 28.5 8.9 1.7.5 10.9 3.4 20.5 6.5 23.3 7.5 47.2 15.2 65.5 21 8.3 2.6 17.5 5.5 20.5 6.5 3 1.1 9.8 3.2 15 4.8 5.2 1.7 19.5 6.2 31.8 10.1 48.3 15.4 67.1 21.4 77.2 24.6 18.3 5.8 55.1 17.5 67.5 21.5 6.6 2.1 18.3 5.9 26 8.3 7.7 2.5 22.8 7.3 33.5 10.7 10.7 3.4 25.6 8.1 33 10.5 7.4 2.4 23 7.3 34.5 11 11.6 3.6 22.1 7 23.5 7.5 1.4.4 11.7 3.7 23 7.3 11.3 3.6 30.6 9.8 43 13.7 12.4 3.9 25.4 8.1 29 9.2 3.6 1.1 6.8 2.3 7.2 2.7.4.3.3 2.4-.2 4.6-1 4.5-1.6 8-2.5 14.5-.3 2.5-.9 5.8-1.2 7.5-1.9 10.7 0 29.7 4.6 45.5 11.6 39.8 41.8 74.8 84.6 98 8.3 4.5 24.3 11.2 34.8 14.6 9.8 3.2 9.1 2.5 16.9 17.4 8.8 16.6 16.2 30.6 20.5 38.4 2.4 4.3 4.3 8.2 4.3 8.7 0 .4.4 1 .9 1.3.7.5 13-3.8 22.6-7.9 1.7-.7 8.6-3.4 15.5-6s14-5.4 15.9-6.2c7.5-3.3 8.8-3.3 10.7-.5 1.9 2.9 12.5 17.4 13.4 18.2 2.3 2.2 13 16.2 13 17 0 .6-3.5 5.6-7.8 11.3-4.3 5.6-12 15.8-17.2 22.7-5.1 6.9-10.4 13.7-11.8 15.1l-2.4 2.7 5.5 5.3c3 3 14.8 14.4 26.3 25.4 11.4 11 23 22.2 25.7 24.9 4.5 4.4 5.2 4.8 7 3.6 2.7-1.6 42.4-33.6 46.2-37.1l3-2.8 10 7.2c7.6 5.5 26.8 18.8 29.3 20.3.1 0-1.3 4.6-3.2 10-1.8 5.4-4.8 14.2-6.6 19.4-1.7 5.2-3.6 10.4-4 11.5-.5 1.1-1.8 4.7-2.9 8-1.1 3.3-2.7 7.6-3.5 9.7-1.9 4.4-2.4 3.9 10.9 10.3 5.5 2.6 19.2 9.3 30.5 14.7 11.3 5.5 23.8 11.6 27.8 13.5 4.3 2.2 7.6 3.3 8.1 2.7.9-.9 13.5-20.3 27.9-42.8l7.3-11.4 12 4c6.6 2.2 17 5.4 23.2 7.2l11.2 3.2-.1 6c-.3 11.1-1.6 49.9-1.9 54.1-.1 2.4.3 4.7.9 5.2.6.5 3.5 1.2 6.5 1.5 2.9.4 5.6.8 6 1 .3.2 3.1.7 6.1 1.1 9.5 1.2 11.2 1.5 20.4 3.1 5 .8 10.5 1.7 12.1 2 1.7.2 4.1.6 5.5.9 1.4.2 4.5.7 7 1.1 4.9.7 6.2.9 13 2 8.7 1.4 7.6 3 14.2-19.6 3.3-11.3 6.1-21.2 6.3-22 .2-.8 1.6-5.7 3.2-10.9l2.8-9.5h24.3c13.4-.1 24.5.1 24.7.4.3.4 8.2 30.1 10 37 .2.8 1.2 4.9 2.4 9 1.1 4.1 2.5 9.4 3.1 11.8 1 4 1.3 4.3 3.8 3.8 1.5-.3 12.6-1.9 24.7-3.6 12.1-1.7 23.1-3.2 24.5-3.4 5.4-.9 13.6-2 22.8-3.1 3.4-.4 7.4-1 8.9-1.4l2.6-.7-.3-18.9c-.1-10.5-.3-25.2-.5-32.8-.1-9.5.1-14 .9-14.2.6-.2 4.5-1.3 8.6-2.5 12.6-3.6 32.4-10.2 33.7-11.2 1.7-1.3-.5-4.3 24.6 34.4 6 9.2 11.4 17.1 12.1 17.7.9.8 3.6-.1 9.7-3.1 19-9.3 48-23.3 56.9-27.5 5.2-2.5 10-4.9 10.7-5.4.8-.8-.9-7.1-6.8-24.2-10.1-29.2-12.9-37.6-12.9-38.2 0-.2 4.2-3.2 9.3-6.6 5-3.4 13.3-9.2 18.2-12.9 5-3.6 9.6-7 10.3-7.4.8-.5 3.3.9 7 3.9 6.5 5.2 6.6 5.3 14.7 11.8 3.3 2.7 6.9 5.6 8 6.5 1.1.9 6.4 5.2 11.8 9.4 11 8.9 10.4 8.8 17.8 1.1 4.4-4.6 33-32.2 48.1-46.4l7-6.7-19.6-26.2-19.6-26.2 2.6-3.2c3.2-3.9 17.8-23.4 22.8-30.4 2.1-2.8 4-5.2 4.2-5.2.3 0 11.6 4.6 25.2 10.1 33.6 13.8 34.4 14.1 35.3 13.2.4-.4 8-14.2 16.9-30.5l16.2-29.8 4.1-1c25.5-6.4 52.1-18.6 73.9-34 11.1-7.8 30.4-26.6 38-37 22.9-31.2 32.7-68.2 27.4-102.5-.9-5.5-1.7-10.9-1.9-11.9-.2-2.1-3.4-.9 54.8-19.4 44.5-14.2 72.7-23.2 86.5-27.7 7.4-2.4 22.3-7.1 33-10.5 10.7-3.4 21.3-6.8 23.5-7.5 2.2-.8 12.8-4.2 23.5-7.5 17.8-5.6 24.6-7.8 44-14 3.6-1.2 15.7-5 27-8.6 11.3-3.6 30.9-9.8 43.5-13.9 12.7-4.1 33.8-10.8 47-15 13.2-4.2 26-8.4 28.5-9.2 2.5-.8 5.2-1.6 6-1.8.8-.2 10.1-3.1 20.5-6.5 10.5-3.3 26.2-8.4 35-11.2 8.8-2.7 18.5-5.8 21.5-6.8 5.6-1.9 13.8-4.5 51.5-16.4 11.6-3.7 22.8-7.3 25-8.1 2.2-.7 7.8-2.5 12.5-4 4.7-1.4 18.9-5.9 31.5-10 60.9-19.5 74.6-23.9 95-30.3 12.1-3.9 33.5-10.7 47.5-15.2 26.9-8.6 33-10.5 69-22 51.8-16.4 48.4-15.2 59.2-20.5 18.9-9.4 36.2-27 44.2-45.3 1.5-3.5 3.7-10.7 4.9-16.1l2.2-9.7 7.6-3.3c18.7-7.9 34.8-22.1 43.2-38.2 4.8-9.2 7.3-18.2 8.6-30.7 0-.7 3.6-2.9 7.9-4.8 26.1-12.1 44-32.7 50.8-58.7.1-.4.2-1.1.3-1.6 0-.4 2.2-1.6 4.9-2.6 2.6-1 7-3.2 9.7-4.8 26-15.7 41.7-42.8 42.4-73.6l.2-8.2-17.3.6c-9.5.3-21.6.8-26.8 1-5.2.2-17.6.7-27.5 1-9.9.3-22.5.8-28 1-9.3.4-26 1-55 2-14.2.5-38 1.4-52 2-5.5.2-18.1.7-28 1-9.9.3-22.5.8-28 1-5.5.3-17.6.7-27 1-9.3.3-21.3.8-26.5 1-5.2.2-17.6.6-27.5 1-9.9.3-22.5.8-28 1-5.5.2-17.4.7-26.5 1-9.1.3-21 .8-26.5 1-9.9.4-28.8 1.1-56.5 2-8 .3-19.9.7-26.5 1-6.6.2-18.5.7-26.5 1-8 .3-20.1.7-27 1-6.9.3-19.9.7-29 1-9.1.3-21 .8-26.5 1-9.6.4-25 1-54.5 2-7.4.3-18.9.7-25.5 1-6.6.3-19.2.7-28 1-8.8.3-21.2.8-27.5 1-6.3.3-18.2.7-26.5 1-8.2.3-20.4.7-27 1-6.6.2-19.4.7-28.5 1-9.1.3-21 .8-26.5 1-5.5.2-17.6.7-27 1-9.3.3-22.2.7-28.5 1-6.3.3-18.2.7-26.5 1-8.2.3-19.7.8-25.5 1-18.4.7-44.1 1.6-55.5 2-28.1 1-51.7 1.9-81 3-8.8.3-21.4.8-28 1-14.9.5-39.8 1.5-53 2-5.5.2-18.1.7-28 1-9.9.3-22.3.8-27.5 1-5.2.2-17.4.7-27 1-42.6 1.5-44.2 1.6-58.9 4.5-3 .5-5.5.9-5.5.8-.1-.2-2.8-4.4-6.1-9.3-7.2-10.9-24-27.9-34.8-35.3-14.1-9.7-31.1-17.1-47.7-20.7-11.8-2.6-33.8-3.1-46.1-1-46.5 7.7-85.2 39.7-104.3 86-1.9 4.6-2.6 5.4-2.7 3.5-.4-6-2.3-19-3.9-27-.6-2.5-1.2-5.6-1.4-7-.2-1.4-1.2-5.7-2.1-9.5-.9-3.9-1.9-8.1-2.1-9.5-1.4-7.9-13.2-41.9-18.9-54.5-12.9-28.7-25.3-50-42.8-73.4-23.8-31.9-56.6-63.3-88.8-84.9-40.3-27-89.1-47.4-133.9-56.1-3-.6-6.8-1.3-8.5-1.7-6.8-1.3-15-1.2-18.2.4zm-23.1 483.2c4 11.2 9.2 24.5 9.9 25.5.4.6 1.2 2.2 1.7 3.6l1 2.5h-28.4c-15.6.1-28.4-.1-28.4-.3 0-.5 5.1-7.5 6.1-8.3 1-.9 13.8-21.7 15.4-25.2l1.7-3.4 9.5.1h9.5l2 5.5zm360.5-.1c6 9.5 8.8 13.6 9.6 13.9.4.2.7.8.7 1.3s2.3 3.9 5 7.4c2.8 3.5 5 6.8 5 7.2 0 .5-14.2.8-31.5.8-27.2 0-31.6.2-32 1.5-.2.8-1.6 6.4-3 12.5-1.5 6-3.8 15.7-5.2 21.5-1.3 5.8-2.7 11.4-2.9 12.5-.2 1.1-2 8.5-3.9 16.5-2 8-3.8 15.6-4.1 17-.3 1.4-1 4.3-1.6 6.5-.5 2.2-1.2 5.1-1.4 6.5-.3 1.4-.7 3.2-1 4-.3.8-.8 2.6-1 4-.3 1.4-2.4 10.4-4.7 20l-4.3 17.5-5.6-9.5c-3.1-5.2-6.6-11.3-7.8-13.5-1.3-2.2-3.1-5.4-4.1-7-1-1.7-3.9-6.7-6.4-11.3-4.6-8.2-4.7-8.4-2.8-10.5 1-1.2 2.1-2.4 2.4-2.7.3-.3 4.9-6.1 10.1-13 24.2-32.1 39.2-59.6 54.8-100.6l3-8.1h29.2l3.5 5.6zm-314.8 85.1c5.8 7.3 16.1 19.1 22.9 25.8l6.2 6.3-3.1 5.7c-1.8 3.1-3.5 6.1-3.9 6.7-.4.5-1.8 2.8-3 5-10 18-30.3 52.4-30.9 52.1-.4-.3-.7-115.4-.2-117.5.1-.2 2 2.2 4.3 5.5 2.3 3.2 5.8 7.9 7.7 10.4zm-139.9 90.5v89.6l-4.7-.6c-16.6-2.1-17.3-2.5-22.6-10.3-8.8-13.1-15.7-32.8-17.3-49.4-1.5-14.6-.1-40 3-53.7 2.2-9.9 10.5-30.1 12.7-30.9.5-.2.9-.8.9-1.3 0-2.6 24.7-32.3 27.3-32.8.4 0 .7 40.2.7 89.4z"/></svg>